<?xml version="1.0" encoding="utf-8"?>
<svg width="350" height="600" viewBox="0 0 470 470" xmlns="http://www.w3.org/2000/svg">

    <g>

        <g>

            <g transform="translate(50, 240) scale(2.95)">
                <path d="M101.53 46.83c1.21-4.29 2.17-10.43 1.02-14.77c-1.61-6.11-3.85-7.03-3.85-7.03s.37-5.88-.97-9.17C92.34 2.6 57.05.71 44.25 8.35C31.56 15.93 28.93 33.2 28.55 41.3c-.39 8.1 6.49 17.28 14.89 23.24c4.9 3.48 14.65-5.55 18.89-7.27c-6.18-6.08-12.35-12.17-18.53-18.25c.72-4.21 2.42-8.47 6.19-11.42c6.81-5.33 35.25-6.07 34.55 4c-.31 4.46-14.03 22.51-21.86 31.6c0 0 .93 20.69-1.6 40.2c12.77 1.47 21 .81 31.75-.74c-.14-9.55.34-8.53.2-18.07c-.1-7.01-.25-14.22-3.07-20.67c-.21-.48-1.29-1.05-1.53-1.52c6.5-3.3 11.03-8.24 13.1-15.57z" fill="#f44336">
                </path>
                <path d="M43.62 29.81c.43-4.94.45-10.29 2.92-14.7c2.64-4.51 11.44-6.08 16.22-6.63c9.07-1.04 24.75.54 25.89 12.05c.4 4-4.11 11.08-4.11 11.08s-.46-2.38-1.81-3.07c-5.97-3.02-12.79-4.3-19.45-3.74c-11.87 1.2-17.11 5.54-19.72 17.23c-.2-4.07-.18-8.16.06-12.22z" fill="#823b1f"></path><path d="M94.72 39.83c-1.52-.55-.23-2.5.25-3.58a41.626 41.626 0 0 0 3.42-17.64c.01.47 2.1 1.84 2.22 9.65c.06 3.9-1.54 8.08-4.08 11.05c-.34.38-1.12.82-1.81.52z" fill="#823b1f"></path><path d="M49.73 48.37c-1.69-.71-7.71-6.02-9.83-8.62c-4.33-5.31-9.14-12.44-6.23-19.46c1.64 10.68 10.02 19.09 17.79 25.97c1.13.92-.22 2.74-1.73 2.11z" fill="#823b1f"></path><path d="M95 118.67c-1.43-5.74-1.89-11.6-2.14-17.48c-10.44 1.55-21.1 1.98-31.57.69c-.99 6.12-.96 10.2-2.78 17.48c-.4 1.62-.76 3.09.68 3.75c.51.23 1.19.06 1.54-.39c2.54-3.18 1.47-9.78 3.39-10.05c3.12-.45.06 8.36.71 10.12c.54 1.48 2.35 1.52 3.01.08c.28-.58.34-1.24.4-1.88c.17-2.03.27-3.18.44-5.21c.09-1.05.11-3.12 1.89-3.09c1.4.02 1.24 2.17 1.28 3.39c.09 3.08-.75 5.98-.28 6.94c.57 1.17 1.98 1.25 2.66.63c1.93-2.35.89-6.22 1.29-9.08c.06-2.76 2.36-3.52 3.08-.68c.35 2.17.18 4.49.01 6.69c-.26 1.48.27 3.87 2.19 3.5c.92-.27 1.23-1.4 1.33-2.36c.25-2.47.08-4.97.19-7.45c-.01-.75.26-1.72 1.17-1.82c2.44-.28 1.96 4.17 2.25 7.79c.14 1.77.09 3.61 1.67 3.65c1.61.04 2.07-1.09 1.93-2.25c-.31-2.67-.96-5.22-.95-8.31c0-.43.21-.9.6-1.07c1.03-.38 1.7.82 1.89 1.68c.75 2.5 1.03 5.04 1.71 7.56c.29 1.05.95 2.36 2.02 2.17c1.97-.69.62-3.45.39-5z" fill="#c62828"></path><path d="M63.45 90.38s5.39-13.83 7.81-27.49c1.32-7.48 3.81-13.59 6.74-18.64c-2.94-1.26-5.77-1.63-8.94-1.15c-1.41.21-2.8.6-4.23.71c-3.28.24-5.43-1.09-9.81-.44c-2.98.44-5.02 2.3-6.67 4.49c-1.66 2.19-2.72 4.75-3.69 7.32c-2.55 6.72-5.14 18.06-9.58 26.79c9.68 5.34 28.37 8.41 28.37 8.41z" fill="#ff7555"></path><path d="M55.7 62.1c-1.05.22-1.72-1.04-1.69-1.78c.16-5.1 3.25-9.68 6.07-12.76c2.71-2.95 5.77-4.42 9.3-4.43c-2.6 1.39-4.76 3.4-6.72 5.76c-1.78 2.36-3.07 5.07-4.08 7.85c-.54 1.52-1.27 5.03-2.88 5.36z" fill="#823b1f"></path><path d="M77.48 64.84c-1.7-1.88-2.08-4.81-2.02-7.44c.16-6.36 3.08-14.6 3.08-14.6c-.87.87-1.67 2.2-2.21 3.35a88.051 88.051 0 0 0-6.85 21.11c-3.21 14.59-6.5 25.63-7.95 30.3c-.11.35.87-.17 1.28-.79c5.47-8.3 7.41-15.5 10.91-24.7c.09-.25.19-.5.38-.69c.24-.25 11.08-3.47 16.95-10.48c-4.21 1.94-8.96 3.5-13.57 3.94z" fill="#823b1f"></path><path d="M51.19 85.46c-5.95-1.13-10.2-2.44-15.11-5.49c0 0-4.04 8.04-13.67 13.17c-.41.22-1.77.76-1.41 2.09c.36 1.32 1.93 1.54 2.59 1.43c2.78-.46 4.85-2.65 6.88-4.52c.42-.39 1.45-.98 2.43-.59c.66.27.46 1.02-.08 1.63c-2.45 2.8-5.36 4.75-5.39 4.77c-.83.5-1.67 1.8-.2 2.61c2.84 1.57 6.15-1.83 9.14-5.76c.36-.47 1-1.06 2.04-.62c.84.36.56 1.52.1 2.18c-1.86 2.66-4.18 4.7-4.2 4.72c-.73.64-1.4 2.07-.08 2.87c1.32.81 3.69.24 7.58-6.19c.31-.51.95-1.49 2.12-1.4c1.04.08 1.34.77.72 2.11c-1.32 2.85-2.41 3.49-3.45 4.95c-1.19 1.67-.67 2.44-.01 3.14c.49.52 1.71.63 3.18-.77c.83-.79 1.65-2.74 3.53-5.79c.84-1.36 1.37-1.74 2.5-1.55c1.15.2.89 1.68.21 2.94c-1.21 2.24-2.79 4.28-2.89 4.39c-1.11 1.2-1 2.43-.25 3.03c.73.58 2.33.34 2.94-.43c.61-.77 1.21-.98 3.07-5.43c.69-1.65 1.22-3.1 2.26-3.13c1.51-.03 1.19 1.34.76 3.05c-.7 2.8-2.63 5.69-2.65 5.72c-.85 1.71-.74 2.83.41 3.18c1.5.45 2.74-.57 3.92-3.18c.19-.43 4.89-13.16 5.69-19.6c-.01.03-3.89-1.85-12.68-3.53z" fill="#f44336"></path>
            </g>

            <!-- Face from Twemoji -->
            <g transform="translate(90, 60) scale(8.5)">
                <g>
                    <animateTransform attributeName="transform"
                                      type="rotate"
                                      values="0 18 18; 2 18 18; 0 18 18"
                                      dur="3s"
                                      repeatCount="indefinite"/>
                    <path fill="#F8D37E" d="M8 19c0 2.209-1.119 4-2.5 4S3 21.209 3 19s1.119-4 2.5-4S8 16.791 8 19zm25 0c0 2.209-1.119 4-2.5 4S28 21.209 28 19s1.119-4 2.5-4s2.5 1.791 2.5 4z"/>
                    <path fill="#F8D37E" d="M5 20.562c0-8.526 5.82-15.438 13-15.438s13 6.912 13 15.438S25.18 36 18 36S5 29.088 5 20.562z"/>
                    <path fill="#662113" d="M13 20a1 1 0 0 1-1-1v-2a1 1 0 0 1 2 0v2a1 1 0 0 1-1 1zm10 0a1 1 0 0 1-1-1v-2a1 1 0 1 1 2 0v2a1 1 0 0 1-1 1z"/>

                    <rect x="12" y="18" width="2" height="2" fill="#F8D37E">
                        <animate attributeName="height" values="0;1;0" dur="4s" repeatCount="indefinite" />
                    </rect>
                    <rect x="22" y="18" width="2" height="2" fill="#F8D37E">
                        <animate attributeName="height" values="0;1;0" dur="4s" repeatCount="indefinite" />
                    </rect>

                    <path fill="#C1694F" d="M19 24h-2a1 1 0 1 1 0-2h2a1 1 0 1 1 0 2z"/>
                    <path fill="#C1694F" d="M19 24h-2a1 1 0 1 1 0-2h2a1 1 0 1 1 0 2z">
                        <animate attributeName="d"
                                 values="M19 24h-2a1 1 0 1 1 0-2h2a1 1 0 1 1 0 2z;
                   M19 25h-2a1 1 0 1 1 0-3h2a1 1 0 1 1 0 3z;
                   M19 24h-2a1 1 0 1 1 0-2h2a1 1 0 1 1 0 2z"
                                 dur="0.s" repeatCount="indefinite"/>
                    </path>

                    <path fill="#C87227" d="M25.274 27.038l-3.294-.941c.003-.034.02-.063.02-.097a1 1 0 0 0-1-1h-6a1 1 0 0 0-1 1c0 .034.016.063.019.097l-3.294.941a1 1 0 0 0 .55 1.924l1.931-.552a.993.993 0 0 0-.1 1.037a.998.998 0 0 0 1.341.448l1.577-.788a.98.98 0 0 0 .529.788a1.003 1.003 0 0 0 1.342-.448l.105-.211l.105.211a1 1 0 0 0 1.342.448a.982.982 0 0 0 .529-.788l1.576.788a1 1 0 0 0 1.343-.448a.993.993 0 0 0-.1-1.037l1.931.552a1.001 1.001 0 0 0 .548-1.924zM18 0c8.615 0 14 6.358 14 11.656c0 5.298-1.077 7.417-2.154 5.298l-2.153-4.238s-6.462 0-8.615-2.12c0 0 3.23 6.358-3.231 0c0 0 1.077 4.239-5.385-1.06c0 0-3.23 2.12-4.308 7.417C5.855 18.423 4 16.954 4 11.656C4 6.357 8.308 0 18 0z"/>



                </g>
            </g>


            <!-- Hat from SVG Repo -->

            <g transform="translate(10, -190) scale(0.95)">
                <path style="fill:#6F362D;" d="M344.64,267.758H179.043c-4.142,0-7.5-3.358-7.5-7.5c0-0.004-15-0.004-15-0.004
		c0,4.146-3.358,7.504-7.5,7.504H125.36l-2.821,14.898h224.921L344.64,267.758z"/>
                <polygon style="fill:#6F362D;" points="353.122,312.554 350.301,297.656 119.7,297.656 116.879,312.554 	"/>
                <path style="fill:#D18736;" d="M401.831,333.658c3.096-2.04,6.049-4.079,8.881-6.105h-48.515c-0.064,0-254.251,0-254.251,0
		c-0.011,0-48.66,0-48.66,0c2.999,2.146,6.14,4.307,9.431,6.465c33.555,22.005,89.641,48.235,166.283,48.235
		C311.947,382.254,368.195,355.827,401.831,333.658z"/>
                <path style="fill:#D18736;" d="M179.043,252.758H341.8l-25.292-133.585c-1.917-10.128-7.664-18.902-16.181-24.708
		c-8.517-5.805-18.784-7.946-28.913-6.029c-13.581,2.572-24.817,12.308-29.322,25.41c-1.041,3.028-3.89,5.061-7.092,5.061
		s-6.051-2.033-7.092-5.061c-4.505-13.102-15.741-22.838-29.322-25.41c-10.129-1.918-20.396,0.224-28.913,6.029
		c-8.518,5.805-14.264,14.58-16.181,24.707L128.2,252.758h20.843c4.141,0,7.498,3.356,7.5,7.496h15
		C171.545,256.114,174.902,252.758,179.043,252.758z"/>
                <path style="fill:#3C1F0E;" d="M467.008,284.093c-3.31-2.489-8.013-1.824-10.501,1.487c-0.125,0.166-9.005,11.828-26.647,26.974
		h-61.471l-2.828-14.935c3.8-0.366,6.772-3.567,6.772-7.463c0-4.142-3.358-7.5-7.5-7.5h-2.105l-4.28-22.608
		c-0.023-0.819-0.177-1.603-0.442-2.336l-26.759-141.329c-2.663-14.064-10.643-26.25-22.471-34.312
		c-11.828-8.062-26.086-11.036-40.152-8.373C254.914,76.294,242.927,84.142,235,95.22c-7.927-11.078-19.914-18.926-33.624-21.522
		c-14.065-2.663-28.324,0.311-40.151,8.373c-11.828,8.062-19.808,20.248-22.471,34.312l-26.759,141.33
		c-0.265,0.733-0.419,1.517-0.442,2.336l-4.281,22.608h-2.105c-4.142,0-7.5,3.358-7.5,7.5c0,3.896,2.972,7.097,6.772,7.463
		l-2.828,14.935H40.158c-17.519-15.051-26.462-26.708-26.667-26.978c-2.491-3.307-7.189-3.971-10.499-1.483
		c-3.311,2.49-3.977,7.191-1.487,10.502c0.797,1.06,19.959,26.247,58.409,51.588c35.35,23.298,94.421,51.071,175.085,51.071
		s139.735-27.773,175.085-51.071c38.449-25.341,57.612-50.528,58.409-51.588C470.984,291.284,470.318,286.582,467.008,284.093z
		 M59.287,327.554h48.649c0.011,0,254.197,0,254.197,0c0.064,0,48.579,0,48.579,0c-2.832,2.025-5.786,4.065-8.881,6.105
		c-33.637,22.169-89.885,48.595-166.831,48.595c-76.642,0-132.728-26.23-166.283-48.235C65.426,331.86,62.286,329.7,59.287,327.554z
		 M125.36,267.758h23.683c4.142,0,7.5-3.358,7.5-7.5c-0.002-4.144-3.359-7.5-7.5-7.5H128.2l25.292-133.585
		c1.917-10.127,7.664-18.902,16.181-24.707c8.517-5.805,18.783-7.947,28.913-6.029c13.581,2.572,24.817,12.308,29.322,25.41
		c1.041,3.028,3.89,5.061,7.092,5.061s6.051-2.033,7.092-5.061c4.505-13.102,15.741-22.838,29.322-25.41
		c10.128-1.917,20.396,0.224,28.913,6.029c8.518,5.805,14.264,14.58,16.181,24.708L341.8,252.758H179.043
		c-4.141,0-7.498,3.356-7.5,7.496c0,4.146,3.358,7.504,7.5,7.504H344.64l2.821,14.898H122.54L125.36,267.758z M350.301,297.656
		l2.821,14.898H116.879l2.821-14.898H350.301z"/>
            </g>

            <animateTransform
                    attributeName="transform"
                    type="translate"
                    values="0,0; 0,3; 0,-2; 0,0"
                    dur="2.5s"
                    keyTimes="0; 0.3; 0.7; 1"
                    calcMode="spline"
                    keySplines="0.25 0.1 0.25 1; 0.42 0 0.58 1; 0.25 0.1 0.25 1"
                    repeatCount="indefinite"
            />
        </g>


    </g>


</svg>